<?xml version="1.0" encoding="us-ascii" standalone="no"?><svg xmlns="http://www.w3.org/2000/svg" xmlns:xlink="http://www.w3.org/1999/xlink" contentStyleType="text/css" height="436px" preserveAspectRatio="none" style="width:759px;height:436px;background:#FFFFFF;" version="1.1" viewBox="0 0 759 436" width="759px" zoomAndPan="magnify"><defs/><g><!--class shop--><g id="elem_shop"><rect codeLine="16" fill="#FFFFFF" height="113.1875" id="shop" rx="2.5" ry="2.5" style="stroke:#2688D4;stroke-width:0.5;" width="209.3333" x="7" y="316"/><ellipse cx="89.9167" cy="332" fill="#FFFFFF" rx="11" ry="11" style="stroke:#181818;stroke-width:1.0;"/><path d="M90.3542,329.5313 L92.1979,329.5313 L92.1979,331.125 C92.1979,331.5156 92.2292,331.6875 92.3229,331.8281 C92.4792,332.0781 92.7604,332.2344 93.0573,332.2344 C93.3229,332.2344 93.5729,332.1094 93.7448,331.8906 C93.8854,331.7188 93.901,331.5938 93.901,331.125 L93.901,327.8438 L85.1354,327.8438 L85.1354,331.125 C85.1354,331.5156 85.1667,331.6875 85.2448,331.8281 C85.401,332.0938 85.6979,332.2344 85.9792,332.2344 C86.2604,332.2344 86.5104,332.1094 86.6823,331.8906 C86.7917,331.7188 86.8229,331.5781 86.8229,331.125 L86.8229,329.5313 L88.651,329.5313 L88.651,336.0469 L87.5417,336.0469 C87.1042,336.0469 86.9792,336.0625 86.8229,336.1719 C86.5729,336.3281 86.4167,336.6094 86.4167,336.9063 C86.4167,337.1563 86.5573,337.4219 86.776,337.5781 C86.9323,337.7031 87.151,337.75 87.5417,337.75 L91.4792,337.75 C91.8073,337.75 92.0729,337.7031 92.1823,337.625 C92.4479,337.4844 92.5885,337.1875 92.5885,336.9063 C92.5885,336.625 92.4635,336.375 92.2292,336.2031 C92.0729,336.0781 91.9323,336.0469 91.4792,336.0469 L90.3542,336.0469 L90.3542,329.5313 Z " fill="#000000"/><text fill="#000000" font-family="sans-serif" font-size="14" lengthAdjust="spacing" textLength="35" x="110.4167" y="336.8467">shop</text><line style="stroke:#2688D4;stroke-width:0.5;" x1="8" x2="215.3333" y1="348" y2="348"/><path d="M20.4167,355.4635 C18.8067,355.4635 17.5,356.7702 17.5,358.3802 C17.5,358.5669 17.5,358.7535 17.535,358.9285 L14,362.4635 L14,364.7969 L17.5,364.7969 L17.5,362.4635 L19.8333,362.4635 L19.8333,361.2969 L19.8683,361.2619 C20.0433,361.2969 20.23,361.2969 20.4167,361.2969 C22.0267,361.2969 23.3333,359.9902 23.3333,358.3802 C23.3333,356.7702 22.0267,355.4635 20.4167,355.4635 M21,356.6302 C21.6417,356.6302 22.1667,357.1552 22.1667,357.7969 C22.1667,358.4385 21.6417,358.9635 21,358.9635 C20.3583,358.9635 19.8333,358.4385 19.8333,357.7969 C19.8333,357.1552 20.3583,356.6302 21,356.6302 " fill="#B8861B" style="stroke:;stroke-width:0.0;stroke-dasharray:;"/><text fill="#000000" font-family="sans-serif" font-size="14" font-weight="bold" lengthAdjust="spacing" textLength="15" x="29.3333" y="364.9951">id</text><text fill="#000000" font-family="sans-serif" font-size="14" lengthAdjust="spacing" textLength="166" x="44.3333" y="364.9951">: INT &#171;auto_increment&#187;</text><line style="stroke:#2688D4;stroke-width:1.0;" x1="8" x2="215.3333" y1="372.2969" y2="372.2969"/><path d="M17.5,379.7604 C15.5633,379.7604 14,381.3238 14,383.2604 C14,385.1971 15.5633,386.7604 17.5,386.7604 C19.4367,386.7604 21,385.1971 21,383.2604 C21,381.3238 19.4367,379.7604 17.5,379.7604 " fill="#EFEFEF" style="stroke:;stroke-width:0.0;stroke-dasharray:;"/><text fill="#000000" font-family="sans-serif" font-size="14" lengthAdjust="spacing" textLength="119" x="28.3333" y="389.292">name: VARCHAR</text><path d="M17.5,396.0573 C15.5633,396.0573 14,397.6206 14,399.5573 C14,401.494 15.5633,403.0573 17.5,403.0573 C19.4367,403.0573 21,401.494 21,399.5573 C21,397.6206 19.4367,396.0573 17.5,396.0573 " fill="#EFEFEF" style="stroke:;stroke-width:0.0;stroke-dasharray:;"/><text fill="#000000" font-family="sans-serif" font-size="14" lengthAdjust="spacing" textLength="119" x="28.3333" y="405.5889">open: DATETIME</text><path d="M17.5,412.3542 C15.5633,412.3542 14,413.9175 14,415.8542 C14,417.7908 15.5633,419.3542 17.5,419.3542 C19.4367,419.3542 21,417.7908 21,415.8542 C21,413.9175 19.4367,412.3542 17.5,412.3542 " fill="#EFEFEF" style="stroke:;stroke-width:0.0;stroke-dasharray:;"/><text fill="#000000" font-family="sans-serif" font-size="14" lengthAdjust="spacing" textLength="132" x="28.3333" y="421.8857">closing: DATETIME</text></g><!--class barber--><g id="elem_barber"><rect codeLine="24" fill="#FFFFFF" height="80.5938" id="barber" rx="2.5" ry="2.5" style="stroke:#2688D4;stroke-width:0.5;" width="209.3333" x="7" y="56"/><ellipse cx="82.9167" cy="72" fill="#FFFFFF" rx="11" ry="11" style="stroke:#181818;stroke-width:1.0;"/><path d="M83.3542,69.5313 L85.1979,69.5313 L85.1979,71.125 C85.1979,71.5156 85.2292,71.6875 85.3229,71.8281 C85.4792,72.0781 85.7604,72.2344 86.0573,72.2344 C86.3229,72.2344 86.5729,72.1094 86.7448,71.8906 C86.8854,71.7188 86.901,71.5938 86.901,71.125 L86.901,67.8438 L78.1354,67.8438 L78.1354,71.125 C78.1354,71.5156 78.1667,71.6875 78.2448,71.8281 C78.401,72.0938 78.6979,72.2344 78.9792,72.2344 C79.2604,72.2344 79.5104,72.1094 79.6823,71.8906 C79.7917,71.7188 79.8229,71.5781 79.8229,71.125 L79.8229,69.5313 L81.651,69.5313 L81.651,76.0469 L80.5417,76.0469 C80.1042,76.0469 79.9792,76.0625 79.8229,76.1719 C79.5729,76.3281 79.4167,76.6094 79.4167,76.9063 C79.4167,77.1563 79.5573,77.4219 79.776,77.5781 C79.9323,77.7031 80.151,77.75 80.5417,77.75 L84.4792,77.75 C84.8073,77.75 85.0729,77.7031 85.1823,77.625 C85.4479,77.4844 85.5885,77.1875 85.5885,76.9063 C85.5885,76.625 85.4635,76.375 85.2292,76.2031 C85.0729,76.0781 84.9323,76.0469 84.4792,76.0469 L83.3542,76.0469 L83.3542,69.5313 Z " fill="#000000"/><text fill="#000000" font-family="sans-serif" font-size="14" lengthAdjust="spacing" textLength="49" x="103.4167" y="76.8467">barber</text><line style="stroke:#2688D4;stroke-width:0.5;" x1="8" x2="215.3333" y1="88" y2="88"/><path d="M20.4167,95.4635 C18.8067,95.4635 17.5,96.7702 17.5,98.3802 C17.5,98.5669 17.5,98.7535 17.535,98.9285 L14,102.4635 L14,104.7969 L17.5,104.7969 L17.5,102.4635 L19.8333,102.4635 L19.8333,101.2969 L19.8683,101.2619 C20.0433,101.2969 20.23,101.2969 20.4167,101.2969 C22.0267,101.2969 23.3333,99.9902 23.3333,98.3802 C23.3333,96.7702 22.0267,95.4635 20.4167,95.4635 M21,96.6302 C21.6417,96.6302 22.1667,97.1552 22.1667,97.7969 C22.1667,98.4385 21.6417,98.9635 21,98.9635 C20.3583,98.9635 19.8333,98.4385 19.8333,97.7969 C19.8333,97.1552 20.3583,96.6302 21,96.6302 " fill="#B8861B" style="stroke:;stroke-width:0.0;stroke-dasharray:;"/><text fill="#000000" font-family="sans-serif" font-size="14" font-weight="bold" lengthAdjust="spacing" textLength="15" x="29.3333" y="104.9951">id</text><text fill="#000000" font-family="sans-serif" font-size="14" lengthAdjust="spacing" textLength="166" x="44.3333" y="104.9951">: INT &#171;auto_increment&#187;</text><line style="stroke:#2688D4;stroke-width:1.0;" x1="8" x2="215.3333" y1="112.2969" y2="112.2969"/><path d="M17.5,119.7604 C15.5633,119.7604 14,121.3237 14,123.2604 C14,125.1971 15.5633,126.7604 17.5,126.7604 C19.4367,126.7604 21,125.1971 21,123.2604 C21,121.3237 19.4367,119.7604 17.5,119.7604 " fill="#EFEFEF" style="stroke:;stroke-width:0.0;stroke-dasharray:;"/><text fill="#000000" font-family="sans-serif" font-size="14" lengthAdjust="spacing" textLength="119" x="28.3333" y="129.292">name: VARCHAR</text></g><!--class shift_schedule--><g id="elem_shift_schedule"><rect codeLine="30" fill="#FFFFFF" height="121.1875" id="shift_schedule" rx="2.5" ry="2.5" style="stroke:#2688D4;stroke-width:0.5;" width="209.3333" x="409.5" y="7"/><ellipse cx="458.4167" cy="23" fill="#FFFFFF" rx="11" ry="11" style="stroke:#181818;stroke-width:1.0;"/><path d="M458.8542,20.5313 L460.6979,20.5313 L460.6979,22.125 C460.6979,22.5156 460.7292,22.6875 460.8229,22.8281 C460.9792,23.0781 461.2604,23.2344 461.5573,23.2344 C461.8229,23.2344 462.0729,23.1094 462.2448,22.8906 C462.3854,22.7188 462.401,22.5938 462.401,22.125 L462.401,18.8438 L453.6354,18.8438 L453.6354,22.125 C453.6354,22.5156 453.6667,22.6875 453.7448,22.8281 C453.901,23.0938 454.1979,23.2344 454.4792,23.2344 C454.7604,23.2344 455.0104,23.1094 455.1823,22.8906 C455.2917,22.7188 455.3229,22.5781 455.3229,22.125 L455.3229,20.5313 L457.151,20.5313 L457.151,27.0469 L456.0417,27.0469 C455.6042,27.0469 455.4792,27.0625 455.3229,27.1719 C455.0729,27.3281 454.9167,27.6094 454.9167,27.9063 C454.9167,28.1563 455.0573,28.4219 455.276,28.5781 C455.4323,28.7031 455.651,28.75 456.0417,28.75 L459.9792,28.75 C460.3073,28.75 460.5729,28.7031 460.6823,28.625 C460.9479,28.4844 461.0885,28.1875 461.0885,27.9063 C461.0885,27.625 460.9635,27.375 460.7292,27.2031 C460.5729,27.0781 460.4323,27.0469 459.9792,27.0469 L458.8542,27.0469 L458.8542,20.5313 Z " fill="#000000"/><text fill="#000000" font-family="sans-serif" font-size="14" lengthAdjust="spacing" textLength="103" x="478.9167" y="27.8467">shift_schedule</text><line style="stroke:#2688D4;stroke-width:0.5;" x1="410.5" x2="617.8333" y1="39" y2="39"/><path d="M422.9167,46.4635 C421.3067,46.4635 420,47.7702 420,49.3802 C420,49.5669 420,49.7535 420.035,49.9285 L416.5,53.4635 L416.5,55.7969 L420,55.7969 L420,53.4635 L422.3333,53.4635 L422.3333,52.2969 L422.3683,52.2619 C422.5433,52.2969 422.73,52.2969 422.9167,52.2969 C424.5267,52.2969 425.8333,50.9902 425.8333,49.3802 C425.8333,47.7702 424.5267,46.4635 422.9167,46.4635 M423.5,47.6302 C424.1417,47.6302 424.6667,48.1552 424.6667,48.7969 C424.6667,49.4385 424.1417,49.9635 423.5,49.9635 C422.8583,49.9635 422.3333,49.4385 422.3333,48.7969 C422.3333,48.1552 422.8583,47.6302 423.5,47.6302 " fill="#B8861B" style="stroke:;stroke-width:0.0;stroke-dasharray:;"/><text fill="#000000" font-family="sans-serif" font-size="14" font-weight="bold" lengthAdjust="spacing" textLength="15" x="431.8333" y="55.9951">id</text><text fill="#000000" font-family="sans-serif" font-size="14" lengthAdjust="spacing" textLength="166" x="446.8333" y="55.9951">: INT &#171;auto_increment&#187;</text><line style="stroke:#2688D4;stroke-width:1.0;" x1="410.5" x2="617.8333" y1="63.2969" y2="63.2969"/><path d="M422.9167,70.7604 C421.3067,70.7604 420,72.0671 420,73.6771 C420,73.8638 420,74.0504 420.035,74.2254 L416.5,77.7604 L416.5,80.0937 L420,80.0937 L420,77.7604 L422.3333,77.7604 L422.3333,76.5937 L422.3683,76.5587 C422.5433,76.5937 422.73,76.5937 422.9167,76.5937 C424.5267,76.5937 425.8333,75.2871 425.8333,73.6771 C425.8333,72.0671 424.5267,70.7604 422.9167,70.7604 M423.5,71.9271 C424.1417,71.9271 424.6667,72.4521 424.6667,73.0937 C424.6667,73.7354 424.1417,74.2604 423.5,74.2604 C422.8583,74.2604 422.3333,73.7354 422.3333,73.0937 C422.3333,72.4521 422.8583,71.9271 423.5,71.9271 " fill="#AAAAAA" style="stroke:;stroke-width:0.0;stroke-dasharray:;"/><text fill="#000000" font-family="sans-serif" font-size="14" lengthAdjust="spacing" textLength="101" x="430.8333" y="80.292">barber_id: INT</text><line style="stroke:#2688D4;stroke-width:1.0;" x1="410.5" x2="617.8333" y1="87.5938" y2="87.5938"/><path d="M420,95.0573 C418.0633,95.0573 416.5,96.6206 416.5,98.5573 C416.5,100.494 418.0633,102.0573 420,102.0573 C421.9367,102.0573 423.5,100.494 423.5,98.5573 C423.5,96.6206 421.9367,95.0573 420,95.0573 " fill="#EFEFEF" style="stroke:;stroke-width:0.0;stroke-dasharray:;"/><text fill="#000000" font-family="sans-serif" font-size="14" lengthAdjust="spacing" textLength="139" x="430.8333" y="104.5889">start_at: DATETIME</text><path d="M420,111.3542 C418.0633,111.3542 416.5,112.9175 416.5,114.8542 C416.5,116.7908 418.0633,118.3542 420,118.3542 C421.9367,118.3542 423.5,116.7908 423.5,114.8542 C423.5,112.9175 421.9367,111.3542 420,111.3542 " fill="#EFEFEF" style="stroke:;stroke-width:0.0;stroke-dasharray:;"/><text fill="#000000" font-family="sans-serif" font-size="14" lengthAdjust="spacing" textLength="131" x="430.8333" y="120.8857">end_at: DATETIME</text></g><!--class customer--><g id="elem_customer"><rect codeLine="39" fill="#FFFFFF" height="80.5938" id="customer" rx="2.5" ry="2.5" style="stroke:#2688D4;stroke-width:0.5;" width="209.3333" x="7" y="200"/><ellipse cx="73.4167" cy="216" fill="#FFFFFF" rx="11" ry="11" style="stroke:#181818;stroke-width:1.0;"/><path d="M73.8542,213.5313 L75.6979,213.5313 L75.6979,215.125 C75.6979,215.5156 75.7292,215.6875 75.8229,215.8281 C75.9792,216.0781 76.2604,216.2344 76.5573,216.2344 C76.8229,216.2344 77.0729,216.1094 77.2448,215.8906 C77.3854,215.7188 77.401,215.5938 77.401,215.125 L77.401,211.8438 L68.6354,211.8438 L68.6354,215.125 C68.6354,215.5156 68.6667,215.6875 68.7448,215.8281 C68.901,216.0938 69.1979,216.2344 69.4792,216.2344 C69.7604,216.2344 70.0104,216.1094 70.1823,215.8906 C70.2917,215.7188 70.3229,215.5781 70.3229,215.125 L70.3229,213.5313 L72.151,213.5313 L72.151,220.0469 L71.0417,220.0469 C70.6042,220.0469 70.4792,220.0625 70.3229,220.1719 C70.0729,220.3281 69.9167,220.6094 69.9167,220.9063 C69.9167,221.1563 70.0573,221.4219 70.276,221.5781 C70.4323,221.7031 70.651,221.75 71.0417,221.75 L74.9792,221.75 C75.3073,221.75 75.5729,221.7031 75.6823,221.625 C75.9479,221.4844 76.0885,221.1875 76.0885,220.9063 C76.0885,220.625 75.9635,220.375 75.7292,220.2031 C75.5729,220.0781 75.4323,220.0469 74.9792,220.0469 L73.8542,220.0469 L73.8542,213.5313 Z " fill="#000000"/><text fill="#000000" font-family="sans-serif" font-size="14" lengthAdjust="spacing" textLength="68" x="93.9167" y="220.8467">customer</text><line style="stroke:#2688D4;stroke-width:0.5;" x1="8" x2="215.3333" y1="232" y2="232"/><path d="M20.4167,239.4635 C18.8067,239.4635 17.5,240.7702 17.5,242.3802 C17.5,242.5669 17.5,242.7535 17.535,242.9285 L14,246.4635 L14,248.7969 L17.5,248.7969 L17.5,246.4635 L19.8333,246.4635 L19.8333,245.2969 L19.8683,245.2619 C20.0433,245.2969 20.23,245.2969 20.4167,245.2969 C22.0267,245.2969 23.3333,243.9902 23.3333,242.3802 C23.3333,240.7702 22.0267,239.4635 20.4167,239.4635 M21,240.6302 C21.6417,240.6302 22.1667,241.1552 22.1667,241.7969 C22.1667,242.4385 21.6417,242.9635 21,242.9635 C20.3583,242.9635 19.8333,242.4385 19.8333,241.7969 C19.8333,241.1552 20.3583,240.6302 21,240.6302 " fill="#B8861B" style="stroke:;stroke-width:0.0;stroke-dasharray:;"/><text fill="#000000" font-family="sans-serif" font-size="14" font-weight="bold" lengthAdjust="spacing" textLength="15" x="29.3333" y="248.9951">id</text><text fill="#000000" font-family="sans-serif" font-size="14" lengthAdjust="spacing" textLength="166" x="44.3333" y="248.9951">: INT &#171;auto_increment&#187;</text><line style="stroke:#2688D4;stroke-width:1.0;" x1="8" x2="215.3333" y1="256.2969" y2="256.2969"/><path d="M17.5,263.7604 C15.5633,263.7604 14,265.3238 14,267.2604 C14,269.1971 15.5633,270.7604 17.5,270.7604 C19.4367,270.7604 21,269.1971 21,267.2604 C21,265.3238 19.4367,263.7604 17.5,263.7604 " fill="#EFEFEF" style="stroke:;stroke-width:0.0;stroke-dasharray:;"/><text fill="#000000" font-family="sans-serif" font-size="14" lengthAdjust="spacing" textLength="119" x="28.3333" y="273.292">name: VARCHAR</text></g><!--class queue--><g id="elem_queue"><rect codeLine="45" fill="#FFFFFF" height="153.7813" id="queue" rx="2.5" ry="2.5" style="stroke:#2688D4;stroke-width:0.5;" width="476.3333" x="276" y="163.5"/><ellipse cx="488.4167" cy="179.5" fill="#FFFFFF" rx="11" ry="11" style="stroke:#181818;stroke-width:1.0;"/><path d="M488.8542,177.0313 L490.6979,177.0313 L490.6979,178.625 C490.6979,179.0156 490.7292,179.1875 490.8229,179.3281 C490.9792,179.5781 491.2604,179.7344 491.5573,179.7344 C491.8229,179.7344 492.0729,179.6094 492.2448,179.3906 C492.3854,179.2188 492.401,179.0938 492.401,178.625 L492.401,175.3438 L483.6354,175.3438 L483.6354,178.625 C483.6354,179.0156 483.6667,179.1875 483.7448,179.3281 C483.901,179.5938 484.1979,179.7344 484.4792,179.7344 C484.7604,179.7344 485.0104,179.6094 485.1823,179.3906 C485.2917,179.2188 485.3229,179.0781 485.3229,178.625 L485.3229,177.0313 L487.151,177.0313 L487.151,183.5469 L486.0417,183.5469 C485.6042,183.5469 485.4792,183.5625 485.3229,183.6719 C485.0729,183.8281 484.9167,184.1094 484.9167,184.4063 C484.9167,184.6563 485.0573,184.9219 485.276,185.0781 C485.4323,185.2031 485.651,185.25 486.0417,185.25 L489.9792,185.25 C490.3073,185.25 490.5729,185.2031 490.6823,185.125 C490.9479,184.9844 491.0885,184.6875 491.0885,184.4063 C491.0885,184.125 490.9635,183.875 490.7292,183.7031 C490.5729,183.5781 490.4323,183.5469 489.9792,183.5469 L488.8542,183.5469 L488.8542,177.0313 Z " fill="#000000"/><text fill="#000000" font-family="sans-serif" font-size="14" lengthAdjust="spacing" textLength="43" x="508.9167" y="184.3467">queue</text><line style="stroke:#2688D4;stroke-width:0.5;" x1="277" x2="751.3333" y1="195.5" y2="195.5"/><path d="M289.4167,202.9635 C287.8067,202.9635 286.5,204.2702 286.5,205.8802 C286.5,206.0669 286.5,206.2535 286.535,206.4285 L283,209.9635 L283,212.2969 L286.5,212.2969 L286.5,209.9635 L288.8333,209.9635 L288.8333,208.7969 L288.8683,208.7619 C289.0433,208.7969 289.23,208.7969 289.4167,208.7969 C291.0267,208.7969 292.3333,207.4902 292.3333,205.8802 C292.3333,204.2702 291.0267,202.9635 289.4167,202.9635 M290,204.1302 C290.6417,204.1302 291.1667,204.6552 291.1667,205.2969 C291.1667,205.9385 290.6417,206.4635 290,206.4635 C289.3583,206.4635 288.8333,205.9385 288.8333,205.2969 C288.8333,204.6552 289.3583,204.1302 290,204.1302 " fill="#B8861B" style="stroke:;stroke-width:0.0;stroke-dasharray:;"/><text fill="#000000" font-family="sans-serif" font-size="14" font-weight="bold" lengthAdjust="spacing" textLength="15" x="298.3333" y="212.4951">id</text><text fill="#000000" font-family="sans-serif" font-size="14" lengthAdjust="spacing" textLength="166" x="313.3333" y="212.4951">: INT &#171;auto_increment&#187;</text><line style="stroke:#2688D4;stroke-width:1.0;" x1="277" x2="751.3333" y1="219.7969" y2="219.7969"/><path d="M289.4167,227.2604 C287.8067,227.2604 286.5,228.5671 286.5,230.1771 C286.5,230.3637 286.5,230.5504 286.535,230.7254 L283,234.2604 L283,236.5938 L286.5,236.5938 L286.5,234.2604 L288.8333,234.2604 L288.8333,233.0938 L288.8683,233.0588 C289.0433,233.0938 289.23,233.0938 289.4167,233.0938 C291.0267,233.0938 292.3333,231.7871 292.3333,230.1771 C292.3333,228.5671 291.0267,227.2604 289.4167,227.2604 M290,228.4271 C290.6417,228.4271 291.1667,228.9521 291.1667,229.5938 C291.1667,230.2354 290.6417,230.7604 290,230.7604 C289.3583,230.7604 288.8333,230.2354 288.8333,229.5938 C288.8333,228.9521 289.3583,228.4271 290,228.4271 " fill="#AAAAAA" style="stroke:;stroke-width:0.0;stroke-dasharray:;"/><text fill="#000000" font-family="sans-serif" font-size="14" lengthAdjust="spacing" textLength="120" x="297.3333" y="236.792">customer_id: INT</text><path d="M289.4167,243.5573 C287.8067,243.5573 286.5,244.864 286.5,246.474 C286.5,246.6606 286.5,246.8473 286.535,247.0223 L283,250.5573 L283,252.8906 L286.5,252.8906 L286.5,250.5573 L288.8333,250.5573 L288.8333,249.3906 L288.8683,249.3556 C289.0433,249.3906 289.23,249.3906 289.4167,249.3906 C291.0267,249.3906 292.3333,248.084 292.3333,246.474 C292.3333,244.864 291.0267,243.5573 289.4167,243.5573 M290,244.724 C290.6417,244.724 291.1667,245.249 291.1667,245.8906 C291.1667,246.5323 290.6417,247.0573 290,247.0573 C289.3583,247.0573 288.8333,246.5323 288.8333,245.8906 C288.8333,245.249 289.3583,244.724 290,244.724 " fill="#AAAAAA" style="stroke:;stroke-width:0.0;stroke-dasharray:;"/><text fill="#000000" font-family="sans-serif" font-size="14" lengthAdjust="spacing" textLength="101" x="297.3333" y="253.0889">barber_id: INT</text><line style="stroke:#2688D4;stroke-width:1.0;" x1="277" x2="751.3333" y1="260.3906" y2="260.3906"/><path d="M286.5,267.8542 C284.5633,267.8542 283,269.4175 283,271.3542 C283,273.2908 284.5633,274.8542 286.5,274.8542 C288.4367,274.8542 290,273.2908 290,271.3542 C290,269.4175 288.4367,267.8542 286.5,267.8542 " fill="#EFEFEF" style="stroke:;stroke-width:0.0;stroke-dasharray:;"/><text fill="#000000" font-family="sans-serif" font-size="14" lengthAdjust="spacing" textLength="174" x="297.3333" y="277.3857">service_time: DATETIME</text><path d="M286.5,284.151 C284.5633,284.151 283,285.7144 283,287.651 C283,289.5877 284.5633,291.151 286.5,291.151 C288.4367,291.151 290,289.5877 290,287.651 C290,285.7144 288.4367,284.151 286.5,284.151 " fill="#EFEFEF" style="stroke:;stroke-width:0.0;stroke-dasharray:;"/><text fill="#000000" font-family="sans-serif" font-size="14" lengthAdjust="spacing" textLength="175" x="297.3333" y="293.6826">queued_time: DATETIME</text><path d="M286.5,300.4479 C284.5633,300.4479 283,302.0112 283,303.9479 C283,305.8846 284.5633,307.4479 286.5,307.4479 C288.4367,307.4479 290,305.8846 290,303.9479 C290,302.0112 288.4367,300.4479 286.5,300.4479 " fill="#EFEFEF" style="stroke:;stroke-width:0.0;stroke-dasharray:;"/><text fill="#000000" font-family="sans-serif" font-size="14" lengthAdjust="spacing" textLength="449" x="297.3333" y="309.9795">status: TINYINT (unavailable, available, waiting, servicing, done)</text></g><!--link barber to shift_schedule--><g id="link_barber_shift_schedule"><path codeLine="56" d="M224.1391,88.4162 C283.5881,84.1112 335.0322,80.3862 394.4662,76.0832 " fill="none" id="barber-shift_schedule" style="stroke:#2688D4;stroke-width:1.0;"/><line style="stroke:#2688D4;stroke-width:1.0;" x1="220.4385" x2="219.8606" y1="92.6946" y2="84.7155"/><line style="stroke:#2688D4;stroke-width:1.0;" x1="223.4306" x2="222.8528" y1="92.478" y2="84.4989"/><line style="stroke:#2688D4;stroke-width:1.0;" x1="224.1391" x2="216.16" y1="88.4162" y2="88.994"/><line style="stroke:#2688D4;stroke-width:1.0;" x1="398.4557" x2="409.427" y1="75.7943" y2="75"/><ellipse cx="398.4557" cy="75.7943" fill="none" rx="4" ry="4" style="stroke:#2688D4;stroke-width:1.0;"/><line style="stroke:#2688D4;stroke-width:1.0;" x1="405.1486" x2="405.7263" y1="71.2993" y2="79.2784"/></g><!--link barber to queue--><g id="link_barber_queue"><path codeLine="57" d="M223.6881,136.4779 C249.1821,145.6449 252.9575,147.0019 281.5885,157.2959 " fill="none" id="barber-queue" style="stroke:#2688D4;stroke-width:1.0;"/><line style="stroke:#2688D4;stroke-width:1.0;" x1="218.5706" x2="221.2775" y1="138.8885" y2="131.3604"/><line style="stroke:#2688D4;stroke-width:1.0;" x1="221.3936" x2="224.1006" y1="139.9036" y2="132.3755"/><line style="stroke:#2688D4;stroke-width:1.0;" x1="223.6881" x2="216.16" y1="136.4779" y2="133.771"/><line style="stroke:#2688D4;stroke-width:1.0;" x1="290.9988" x2="300.557" y1="160.6793" y2="157.7398"/><line style="stroke:#2688D4;stroke-width:1.0;" x1="290.9988" x2="296.497" y1="160.6793" y2="169.0322"/><line style="stroke:#2688D4;stroke-width:1.0;" x1="290.9988" x2="298.527" y1="160.6793" y2="163.386"/><ellipse cx="285.3526" cy="158.6493" fill="none" rx="4" ry="4" style="stroke:#2688D4;stroke-width:1.0;"/></g><!--link customer to queue--><g id="link_customer_queue"><path codeLine="58" d="M231.16,240.5 C249.817,240.5 239.946,240.5 260.621,240.5 " fill="none" id="customer-queue" style="stroke:#2688D4;stroke-width:1.0;"/><line style="stroke:#2688D4;stroke-width:1.0;" x1="227.16" x2="216.16" y1="240.5" y2="240.5"/><ellipse cx="227.16" cy="240.5" fill="none" rx="4" ry="4" style="stroke:#2688D4;stroke-width:1.0;"/><line style="stroke:#2688D4;stroke-width:1.0;" x1="220.16" x2="220.16" y1="244.5" y2="236.5"/><line style="stroke:#2688D4;stroke-width:1.0;" x1="264.621" x2="275.621" y1="240.5" y2="240.5"/><ellipse cx="264.621" cy="240.5" fill="none" rx="4" ry="4" style="stroke:#2688D4;stroke-width:1.0;"/><line style="stroke:#2688D4;stroke-width:1.0;" x1="271.621" x2="271.621" y1="236.5" y2="244.5"/></g><!--SRC=[jLBlQzim4Ftkl-96OSGGKpgs4eenP6rX-R1-A6RGJ-OidMCHMyeakKveyhzFjbFNJdz0IoU3aUxTazwzku8o2rQ15ilS0XUQc1LAUcObv1erbg1L9JbJMfA67uEuoP6hMiWbP5WO6Y0vIbvhOIt9PnWhq1XuyC2jdyXMo_RwIrKe3NKkBBN8N6jLTy6JR-Up6V_U4PJcfCVnlUTzuPG9IR3MeaIzJLQqdS36Xp2DGjOaNvoaizdvcJj-TLWKdhRH23RXQHhrz4nf4alvH3zmiLtFk3tF1QfIZYYKDP-ZbCG51ivKf_mbhiMqe8bZahJ2Rc43OGYJUDfvuKCKULwNu_nMQ_1RwqQ52Wx-1InkOaV5ogf4IAQfT1SwCa0GkD-ZH8abDTb_vhUNl-Qt0qIjNRCSSZMFh-F5x-i1n0fbcZOFqNqlAqMTkiduP67xGTaYiubXEV6ge8- -C-fj9pdfUSTYZ4Lj4xIl-46I7uDFSbbbh2h_fo5_Awe-nuT7hICdtkSKwNl1AB6YK_k2MwrS_bQ6izjMfW7ZnSrTetzIIRn7KJG5Js6mhL5ODuhJmyFjbYj9VkFFOH9tko1GkwEv6O4FdIYlxzLEjPGs-Wy0]--></g></svg>