<?xml version="1.0" encoding="us-ascii" standalone="no"?><svg xmlns="http://www.w3.org/2000/svg" xmlns:xlink="http://www.w3.org/1999/xlink" contentStyleType="text/css" height="1297px" preserveAspectRatio="none" style="width:1489px;height:1297px;background:#FFFFFF;" version="1.1" viewBox="0 0 1489 1297" width="1489px" zoomAndPan="magnify"><defs/><g><rect fill="#DDDDDD" height="1285.0391" style="stroke:#181818;stroke-width:0.5;" width="158" x="215" y="6"/><text fill="#000000" font-family="sans-serif" font-size="13" font-weight="bold" lengthAdjust="spacing" textLength="98" x="245" y="18.0669">Toy Universe</text><rect fill="#DDDDDD" height="1285.0391" style="stroke:#181818;stroke-width:0.5;" width="74" x="415" y="6"/><text fill="#000000" font-family="sans-serif" font-size="13" font-weight="bold" lengthAdjust="spacing" textLength="39" x="432.5" y="18.0669">SFTP</text><rect fill="#ADD8E6" height="1285.0391" style="stroke:#181818;stroke-width:0.5;" width="439" x="531" y="6"/><text fill="#000000" font-family="sans-serif" font-size="13" font-weight="bold" lengthAdjust="spacing" textLength="75" x="713" y="18.0669">My Server</text><rect fill="#90EE90" height="1285.0391" style="stroke:#181818;stroke-width:0.5;" width="87" x="1159" y="6"/><text fill="#000000" font-family="sans-serif" font-size="13" font-weight="bold" lengthAdjust="spacing" textLength="40" x="1182.5" y="18.0669">Redis</text><rect fill="#DDDDDD" height="1285.0391" style="stroke:#181818;stroke-width:0.5;" width="179" x="1288" y="6"/><text fill="#000000" font-family="sans-serif" font-size="13" font-weight="bold" lengthAdjust="spacing" textLength="29" x="1363" y="18.0669">ERP</text><rect fill="none" height="538.9219" style="stroke:#000000;stroke-width:1.5;" width="1473" x="10" y="98.2969"/><rect fill="none" height="154.7969" style="stroke:#000000;stroke-width:1.5;" width="948" x="525" y="415.1563"/><rect fill="none" height="46.2656" style="stroke:#000000;stroke-width:1.5;" width="727" x="525" y="583.9531"/><rect fill="none" height="543.5234" style="stroke:#000000;stroke-width:1.5;" width="1084" x="399" y="651.2188"/><rect fill="none" height="161.7969" style="stroke:#000000;stroke-width:1.5;" width="686.5" x="409" y="746.6172"/><rect fill="none" height="154.7969" style="stroke:#000000;stroke-width:1.5;" width="907" x="566" y="951.5469"/><rect fill="none" height="67.3984" style="stroke:#000000;stroke-width:1.5;" width="520.5" x="885" y="1120.3438"/><line style="stroke:#181818;stroke-width:0.5;stroke-dasharray:5.0,5.0;" x1="93" x2="93" y1="81.2969" y2="1211.7422"/><line style="stroke:#181818;stroke-width:0.5;stroke-dasharray:5.0,5.0;" x1="294" x2="294" y1="81.2969" y2="1211.7422"/><line style="stroke:#181818;stroke-width:0.5;stroke-dasharray:5.0,5.0;" x1="452" x2="452" y1="81.2969" y2="1211.7422"/><line style="stroke:#181818;stroke-width:0.5;stroke-dasharray:5.0,5.0;" x1="567" x2="567" y1="81.2969" y2="1211.7422"/><line style="stroke:#181818;stroke-width:0.5;stroke-dasharray:5.0,5.0;" x1="727" x2="727" y1="81.2969" y2="1211.7422"/><line style="stroke:#181818;stroke-width:0.5;stroke-dasharray:5.0,5.0;" x1="930" x2="930" y1="81.2969" y2="1211.7422"/><line style="stroke:#181818;stroke-width:0.5;stroke-dasharray:5.0,5.0;" x1="1202" x2="1202" y1="81.2969" y2="1211.7422"/><line style="stroke:#181818;stroke-width:0.5;stroke-dasharray:5.0,5.0;" x1="1377" x2="1377" y1="81.2969" y2="1211.7422"/><text fill="#000000" font-family="sans-serif" font-size="14" lengthAdjust="spacing" textLength="70" x="55" y="77.9951">Customer</text><ellipse cx="93" cy="13.5" fill="#E2E2F0" rx="8" ry="8" style="stroke:#181818;stroke-width:0.5;"/><path d="M93,21.5 L93,48.5 M80,29.5 L106,29.5 M93,48.5 L80,63.5 M93,48.5 L106,63.5 " fill="none" style="stroke:#181818;stroke-width:0.5;"/><text fill="#000000" font-family="sans-serif" font-size="14" lengthAdjust="spacing" textLength="70" x="55" y="1223.7373">Customer</text><ellipse cx="93" cy="1235.5391" fill="#E2E2F0" rx="8" ry="8" style="stroke:#181818;stroke-width:0.5;"/><path d="M93,1243.5391 L93,1270.5391 M80,1251.5391 L106,1251.5391 M93,1270.5391 L80,1285.5391 M93,1270.5391 L106,1285.5391 " fill="none" style="stroke:#181818;stroke-width:0.5;"/><rect fill="#E2E2F0" height="46.5938" rx="2.5" ry="2.5" style="stroke:#181818;stroke-width:0.5;" width="150" x="219" y="33.7031"/><text fill="#000000" font-family="sans-serif" font-size="14" font-style="italic" lengthAdjust="spacing" textLength="136" x="226" y="53.6982">&#171;toyuniverse.com&#187;</text><text fill="#000000" font-family="sans-serif" font-size="14" font-weight="bold" lengthAdjust="spacing" textLength="51" x="268.5" y="69.9951">Server</text><rect fill="#E2E2F0" height="46.5938" rx="2.5" ry="2.5" style="stroke:#181818;stroke-width:0.5;" width="150" x="219" y="1210.7422"/><text fill="#000000" font-family="sans-serif" font-size="14" font-style="italic" lengthAdjust="spacing" textLength="136" x="226" y="1230.7373">&#171;toyuniverse.com&#187;</text><text fill="#000000" font-family="sans-serif" font-size="14" font-weight="bold" lengthAdjust="spacing" textLength="51" x="268.5" y="1247.0342">Server</text><rect fill="#E2E2F0" height="46.5938" rx="2.5" ry="2.5" style="stroke:#181818;stroke-width:0.5;" width="66" x="419" y="33.7031"/><text fill="#000000" font-family="sans-serif" font-size="14" font-style="italic" lengthAdjust="spacing" textLength="52" x="426" y="53.6982">&#171;SFTP&#187;</text><text fill="#000000" font-family="sans-serif" font-size="14" font-weight="bold" lengthAdjust="spacing" textLength="51" x="426.5" y="69.9951">Server</text><rect fill="#E2E2F0" height="46.5938" rx="2.5" ry="2.5" style="stroke:#181818;stroke-width:0.5;" width="66" x="419" y="1210.7422"/><text fill="#000000" font-family="sans-serif" font-size="14" font-style="italic" lengthAdjust="spacing" textLength="52" x="426" y="1230.7373">&#171;SFTP&#187;</text><text fill="#000000" font-family="sans-serif" font-size="14" font-weight="bold" lengthAdjust="spacing" textLength="51" x="426.5" y="1247.0342">Server</text><rect fill="#E2E2F0" height="46.5938" rx="2.5" ry="2.5" style="stroke:#181818;stroke-width:0.5;" width="65" x="535" y="33.7031"/><text fill="#000000" font-family="sans-serif" font-size="14" font-style="italic" lengthAdjust="spacing" textLength="40" x="547.5" y="53.6982">&#171;API&#187;</text><text fill="#000000" font-family="sans-serif" font-size="14" font-weight="bold" lengthAdjust="spacing" textLength="51" x="542" y="69.9951">Server</text><rect fill="#E2E2F0" height="46.5938" rx="2.5" ry="2.5" style="stroke:#181818;stroke-width:0.5;" width="65" x="535" y="1210.7422"/><text fill="#000000" font-family="sans-serif" font-size="14" font-style="italic" lengthAdjust="spacing" textLength="40" x="547.5" y="1230.7373">&#171;API&#187;</text><text fill="#000000" font-family="sans-serif" font-size="14" font-weight="bold" lengthAdjust="spacing" textLength="51" x="542" y="1247.0342">Server</text><rect fill="#E2E2F0" height="46.5938" rx="2.5" ry="2.5" style="stroke:#181818;stroke-width:0.5;" width="109" x="673" y="33.7031"/><text fill="#000000" font-family="sans-serif" font-size="14" font-style="italic" lengthAdjust="spacing" textLength="86" x="684.5" y="53.6982">&#171;Database&#187;</text><text fill="#000000" font-family="sans-serif" font-size="14" font-weight="bold" lengthAdjust="spacing" textLength="95" x="680" y="69.9951">Order Table</text><rect fill="#E2E2F0" height="46.5938" rx="2.5" ry="2.5" style="stroke:#181818;stroke-width:0.5;" width="109" x="673" y="1210.7422"/><text fill="#000000" font-family="sans-serif" font-size="14" font-style="italic" lengthAdjust="spacing" textLength="86" x="684.5" y="1230.7373">&#171;Database&#187;</text><text fill="#000000" font-family="sans-serif" font-size="14" font-weight="bold" lengthAdjust="spacing" textLength="95" x="680" y="1247.0342">Order Table</text><rect fill="#E2E2F0" height="46.5938" rx="2.5" ry="2.5" style="stroke:#181818;stroke-width:0.5;" width="71" x="895" y="33.7031"/><text fill="#000000" font-family="sans-serif" font-size="14" font-style="italic" lengthAdjust="spacing" textLength="40" x="910.5" y="53.6982">&#171;Job&#187;</text><text fill="#000000" font-family="sans-serif" font-size="14" font-weight="bold" lengthAdjust="spacing" textLength="57" x="902" y="69.9951">Worker</text><rect fill="#E2E2F0" height="46.5938" rx="2.5" ry="2.5" style="stroke:#181818;stroke-width:0.5;" width="71" x="895" y="1210.7422"/><text fill="#000000" font-family="sans-serif" font-size="14" font-style="italic" lengthAdjust="spacing" textLength="40" x="910.5" y="1230.7373">&#171;Job&#187;</text><text fill="#000000" font-family="sans-serif" font-size="14" font-weight="bold" lengthAdjust="spacing" textLength="57" x="902" y="1247.0342">Worker</text><rect fill="#E2E2F0" height="46.5938" rx="2.5" ry="2.5" style="stroke:#181818;stroke-width:0.5;" width="79" x="1163" y="33.7031"/><text fill="#000000" font-family="sans-serif" font-size="14" font-style="italic" lengthAdjust="spacing" textLength="65" x="1170" y="53.6982">&#171;Queue&#187;</text><text fill="#000000" font-family="sans-serif" font-size="14" font-weight="bold" lengthAdjust="spacing" textLength="57" x="1174" y="69.9951">BullMQ</text><rect fill="#E2E2F0" height="46.5938" rx="2.5" ry="2.5" style="stroke:#181818;stroke-width:0.5;" width="79" x="1163" y="1210.7422"/><text fill="#000000" font-family="sans-serif" font-size="14" font-style="italic" lengthAdjust="spacing" textLength="65" x="1170" y="1230.7373">&#171;Queue&#187;</text><text fill="#000000" font-family="sans-serif" font-size="14" font-weight="bold" lengthAdjust="spacing" textLength="57" x="1174" y="1247.0342">BullMQ</text><rect fill="#E2E2F0" height="46.5938" rx="2.5" ry="2.5" style="stroke:#181818;stroke-width:0.5;" width="171" x="1292" y="33.7031"/><text fill="#000000" font-family="sans-serif" font-size="14" font-style="italic" lengthAdjust="spacing" textLength="157" x="1299" y="53.6982">&#171;Order Management&#187;</text><text fill="#000000" font-family="sans-serif" font-size="14" font-weight="bold" lengthAdjust="spacing" textLength="51" x="1352" y="69.9951">Server</text><rect fill="#E2E2F0" height="46.5938" rx="2.5" ry="2.5" style="stroke:#181818;stroke-width:0.5;" width="171" x="1292" y="1210.7422"/><text fill="#000000" font-family="sans-serif" font-size="14" font-style="italic" lengthAdjust="spacing" textLength="157" x="1299" y="1230.7373">&#171;Order Management&#187;</text><text fill="#000000" font-family="sans-serif" font-size="14" font-weight="bold" lengthAdjust="spacing" textLength="51" x="1352" y="1247.0342">Server</text><path d="M10,98.2969 L178,98.2969 L178,105.4297 L168,115.4297 L10,115.4297 L10,98.2969 " fill="#EEEEEE" style="stroke:#000000;stroke-width:1.5;"/><rect fill="none" height="538.9219" style="stroke:#000000;stroke-width:1.5;" width="1473" x="10" y="98.2969"/><text fill="#000000" font-family="sans-serif" font-size="13" font-weight="bold" lengthAdjust="spacing" textLength="123" x="25" y="111.3638">Customer Order</text><polygon fill="#181818" points="282,132.5625,292,136.5625,282,140.5625,286,136.5625" style="stroke:#181818;stroke-width:1.0;"/><line style="stroke:#181818;stroke-width:1.0;stroke-dasharray:2.0,2.0;" x1="93" x2="288" y1="136.5625" y2="136.5625"/><text fill="#000000" font-family="sans-serif" font-size="13" font-weight="bold" lengthAdjust="spacing" textLength="9" x="100" y="131.4966">1</text><text fill="#000000" font-family="sans-serif" font-size="13" lengthAdjust="spacing" textLength="164" x="113" y="131.4966">User purchases a product</text><polygon fill="#181818" points="555.5,161.6953,565.5,165.6953,555.5,169.6953,559.5,165.6953" style="stroke:#181818;stroke-width:1.0;"/><line style="stroke:#181818;stroke-width:1.0;stroke-dasharray:2.0,2.0;" x1="294" x2="561.5" y1="165.6953" y2="165.6953"/><text fill="#000000" font-family="sans-serif" font-size="13" font-weight="bold" lengthAdjust="spacing" textLength="9" x="301" y="160.6294">2</text><text fill="#000000" font-family="sans-serif" font-size="13" lengthAdjust="spacing" textLength="219" x="314" y="160.6294">Web hook notification of purchase</text><polygon fill="#181818" points="715.5,224.0938,725.5,228.0938,715.5,232.0938,719.5,228.0938" style="stroke:#181818;stroke-width:1.0;"/><line style="stroke:#181818;stroke-width:1.0;stroke-dasharray:2.0,2.0;" x1="567.5" x2="721.5" y1="228.0938" y2="228.0938"/><text fill="#000000" font-family="sans-serif" font-size="13" font-weight="bold" lengthAdjust="spacing" textLength="8" x="574.5" y="223.0278">3</text><text fill="#000000" font-family="sans-serif" font-size="13" lengthAdjust="spacing" textLength="32" x="586.5" y="223.0278">Save</text><path d="M732,178.6953 L732,263.6953 L1015,263.6953 L1015,188.6953 L1005,178.6953 L732,178.6953 " fill="#FEFFDD" style="stroke:#181818;stroke-width:0.5;"/><path d="M1005,178.6953 L1005,188.6953 L1015,188.6953 L1005,178.6953 " fill="#FEFFDD" style="stroke:#181818;stroke-width:0.5;"/><text fill="#000000" font-family="sans-serif" font-size="13" font-weight="bold" lengthAdjust="spacing" textLength="50" x="738" y="195.7622">status</text><text fill="#000000" font-family="sans-serif" font-size="13" lengthAdjust="spacing" textLength="10" x="792" y="195.7622">=</text><text fill="#000000" font-family="sans-serif" font-size="13" font-weight="bold" lengthAdjust="spacing" textLength="58" x="806" y="195.7622">pending</text><text fill="#000000" font-family="sans-serif" font-size="13" lengthAdjust="spacing" textLength="55" x="868" y="195.7622">(default)</text><text fill="#000000" font-family="sans-serif" font-size="13" lengthAdjust="spacing" textLength="262" x="738" y="210.895">Saving order ID can serve as persistence</text><text fill="#000000" font-family="sans-serif" font-size="13" lengthAdjust="spacing" textLength="200" x="738" y="226.0278">in cases wherein Redis restarts</text><text fill="#000000" font-family="sans-serif" font-size="13" lengthAdjust="spacing" textLength="222" x="738" y="241.1606">and will be picked up by API server</text><text fill="#000000" font-family="sans-serif" font-size="13" lengthAdjust="spacing" textLength="210" x="738" y="256.2935">upon startup to re-add to queue.</text><polygon fill="#181818" points="578.5,286.4922,568.5,290.4922,578.5,294.4922,574.5,290.4922" style="stroke:#181818;stroke-width:1.0;"/><line style="stroke:#181818;stroke-width:1.0;stroke-dasharray:2.0,2.0;" x1="572.5" x2="726.5" y1="290.4922" y2="290.4922"/><text fill="#000000" font-family="sans-serif" font-size="13" font-weight="bold" lengthAdjust="spacing" textLength="9" x="703.5" y="285.4263">4</text><text fill="#000000" font-family="sans-serif" font-size="13" lengthAdjust="spacing" textLength="4" x="716.5" y="285.4263">&#160;</text><polygon fill="#181818" points="305,341.3242,295,345.3242,305,349.3242,301,345.3242" style="stroke:#181818;stroke-width:1.0;"/><line style="stroke:#181818;stroke-width:1.0;stroke-dasharray:2.0,2.0;" x1="299" x2="566.5" y1="345.3242" y2="345.3242"/><text fill="#000000" font-family="sans-serif" font-size="13" font-weight="bold" lengthAdjust="spacing" textLength="9" x="432.5" y="340.2583">5</text><text fill="#000000" font-family="sans-serif" font-size="13" lengthAdjust="spacing" textLength="115" x="445.5" y="340.2583">Success response</text><path d="M20,303.4922 L20,373.4922 L289,373.4922 L289,313.4922 L279,303.4922 L20,303.4922 " fill="#FEFFDD" style="stroke:#181818;stroke-width:0.5;"/><path d="M279,303.4922 L279,313.4922 L289,313.4922 L279,303.4922 " fill="#FEFFDD" style="stroke:#181818;stroke-width:0.5;"/><text fill="#000000" font-family="sans-serif" font-size="13" lengthAdjust="spacing" textLength="187" x="26" y="320.5591">This solves the timeout issue</text><text fill="#000000" font-family="sans-serif" font-size="13" lengthAdjust="spacing" textLength="227" x="26" y="335.6919">since the webhook no longer needs</text><text fill="#000000" font-family="sans-serif" font-size="13" lengthAdjust="spacing" textLength="181" x="26" y="350.8247">to concern itself with finding</text><text fill="#000000" font-family="sans-serif" font-size="13" lengthAdjust="spacing" textLength="248" x="26" y="365.9575">the order detail and submission to ERP</text><polygon fill="#181818" points="715.5,396.1563,725.5,400.1563,715.5,404.1563,719.5,400.1563" style="stroke:#181818;stroke-width:1.0;"/><line style="stroke:#181818;stroke-width:1.0;stroke-dasharray:2.0,2.0;" x1="567.5" x2="721.5" y1="400.1563" y2="400.1563"/><text fill="#000000" font-family="sans-serif" font-size="13" font-weight="bold" lengthAdjust="spacing" textLength="9" x="574.5" y="395.0903">6</text><text fill="#000000" font-family="sans-serif" font-size="13" lengthAdjust="spacing" textLength="114" x="587.5" y="395.0903">Query order by ID</text><path d="M525,415.1563 L591,415.1563 L591,422.2891 L581,432.2891 L525,432.2891 L525,415.1563 " fill="#EEEEEE" style="stroke:#000000;stroke-width:1.5;"/><rect fill="none" height="154.7969" style="stroke:#000000;stroke-width:1.5;" width="948" x="525" y="415.1563"/><text fill="#000000" font-family="sans-serif" font-size="13" font-weight="bold" lengthAdjust="spacing" textLength="21" x="540" y="428.2231">alt</text><text fill="#000000" font-family="sans-serif" font-size="11" font-weight="bold" lengthAdjust="spacing" textLength="184" x="606" y="427.3667">["Order found in database"]</text><polygon fill="#181818" points="578.5,449.4219,568.5,453.4219,578.5,457.4219,574.5,453.4219" style="stroke:#181818;stroke-width:1.0;"/><line style="stroke:#181818;stroke-width:1.0;stroke-dasharray:2.0,2.0;" x1="572.5" x2="726.5" y1="453.4219" y2="453.4219"/><text fill="#000000" font-family="sans-serif" font-size="13" font-weight="bold" lengthAdjust="spacing" textLength="9" x="630.5" y="448.356">7</text><text fill="#000000" font-family="sans-serif" font-size="13" lengthAdjust="spacing" textLength="77" x="643.5" y="448.356">Order found</text><polygon fill="#181818" points="1365.5,493.6875,1375.5,497.6875,1365.5,501.6875,1369.5,497.6875" style="stroke:#181818;stroke-width:1.0;"/><line style="stroke:#181818;stroke-width:1.0;stroke-dasharray:2.0,2.0;" x1="567.5" x2="1371.5" y1="497.6875" y2="497.6875"/><text fill="#000000" font-family="sans-serif" font-size="13" font-weight="bold" lengthAdjust="spacing" textLength="9" x="574.5" y="485.0552">8</text><text fill="#000000" font-family="sans-serif" font-size="13" lengthAdjust="spacing" textLength="138" x="587.5" y="477.4888">Call ERP API to create</text><text fill="#000000" font-family="sans-serif" font-size="13" lengthAdjust="spacing" textLength="200" x="587.5" y="492.6216">an order and pass order details</text><polygon fill="#181818" points="578.5,522.8203,568.5,526.8203,578.5,530.8203,574.5,526.8203" style="stroke:#181818;stroke-width:1.0;"/><line style="stroke:#181818;stroke-width:1.0;stroke-dasharray:2.0,2.0;" x1="572.5" x2="1376.5" y1="526.8203" y2="526.8203"/><text fill="#000000" font-family="sans-serif" font-size="13" font-weight="bold" lengthAdjust="spacing" textLength="9" x="1242.5" y="521.7544">9</text><text fill="#000000" font-family="sans-serif" font-size="13" lengthAdjust="spacing" textLength="115" x="1255.5" y="521.7544">Success response</text><polygon fill="#181818" points="715.5,554.9531,725.5,558.9531,715.5,562.9531,719.5,558.9531" style="stroke:#181818;stroke-width:1.0;"/><line style="stroke:#181818;stroke-width:1.0;stroke-dasharray:2.0,2.0;" x1="567.5" x2="721.5" y1="558.9531" y2="558.9531"/><text fill="#000000" font-family="sans-serif" font-size="13" font-weight="bold" lengthAdjust="spacing" textLength="19" x="574.5" y="553.8872">10</text><text fill="#000000" font-family="sans-serif" font-size="13" lengthAdjust="spacing" textLength="46" x="597.5" y="553.8872">Update</text><path d="M732,539.8203 L732,564.8203 L878,564.8203 L878,549.8203 L868,539.8203 L732,539.8203 " fill="#FEFFDD" style="stroke:#181818;stroke-width:0.5;"/><path d="M868,539.8203 L868,549.8203 L878,549.8203 L868,539.8203 " fill="#FEFFDD" style="stroke:#181818;stroke-width:0.5;"/><text fill="#000000" font-family="sans-serif" font-size="13" font-weight="bold" lengthAdjust="spacing" textLength="50" x="738" y="556.8872">status</text><text fill="#000000" font-family="sans-serif" font-size="13" lengthAdjust="spacing" textLength="10" x="792" y="556.8872">=</text><text fill="#000000" font-family="sans-serif" font-size="13" font-weight="bold" lengthAdjust="spacing" textLength="57" x="806" y="556.8872">fulfilled</text><path d="M525,583.9531 L591,583.9531 L591,591.0859 L581,601.0859 L525,601.0859 L525,583.9531 " fill="#EEEEEE" style="stroke:#000000;stroke-width:1.5;"/><rect fill="none" height="46.2656" style="stroke:#000000;stroke-width:1.5;" width="727" x="525" y="583.9531"/><text fill="#000000" font-family="sans-serif" font-size="13" font-weight="bold" lengthAdjust="spacing" textLength="21" x="540" y="597.02">alt</text><text fill="#000000" font-family="sans-serif" font-size="11" font-weight="bold" lengthAdjust="spacing" textLength="151" x="606" y="596.1636">["Failed to find order"]</text><polygon fill="#181818" points="1190.5,618.2188,1200.5,622.2188,1190.5,626.2188,1194.5,622.2188" style="stroke:#181818;stroke-width:1.0;"/><line style="stroke:#181818;stroke-width:1.0;stroke-dasharray:2.0,2.0;" x1="567.5" x2="1196.5" y1="622.2188" y2="622.2188"/><text fill="#000000" font-family="sans-serif" font-size="13" font-weight="bold" lengthAdjust="spacing" textLength="18" x="574.5" y="617.1528">11</text><text fill="#000000" font-family="sans-serif" font-size="13" lengthAdjust="spacing" textLength="185" x="596.5" y="617.1528">Add a job with given order ID</text><path d="M399,651.2188 L491,651.2188 L491,658.3516 L481,668.3516 L399,668.3516 L399,651.2188 " fill="#EEEEEE" style="stroke:#000000;stroke-width:1.5;"/><rect fill="none" height="543.5234" style="stroke:#000000;stroke-width:1.5;" width="1084" x="399" y="651.2188"/><text fill="#000000" font-family="sans-serif" font-size="13" font-weight="bold" lengthAdjust="spacing" textLength="47" x="414" y="664.2856">Queue</text><polygon fill="#181818" points="941.5,685.4844,931.5,689.4844,941.5,693.4844,937.5,689.4844" style="stroke:#181818;stroke-width:1.0;"/><line style="stroke:#181818;stroke-width:1.0;stroke-dasharray:2.0,2.0;" x1="935.5" x2="1201.5" y1="689.4844" y2="689.4844"/><text fill="#000000" font-family="sans-serif" font-size="13" font-weight="bold" lengthAdjust="spacing" textLength="18" x="1007.5" y="684.4185">12</text><text fill="#000000" font-family="sans-serif" font-size="13" lengthAdjust="spacing" textLength="166" x="1029.5" y="684.4185">Trigger associated worker</text><line style="stroke:#181818;stroke-width:1.0;stroke-dasharray:2.0,2.0;" x1="930.5" x2="972.5" y1="718.6172" y2="718.6172"/><line style="stroke:#181818;stroke-width:1.0;stroke-dasharray:2.0,2.0;" x1="972.5" x2="972.5" y1="718.6172" y2="731.6172"/><line style="stroke:#181818;stroke-width:1.0;stroke-dasharray:2.0,2.0;" x1="931.5" x2="972.5" y1="731.6172" y2="731.6172"/><polygon fill="#181818" points="941.5,727.6172,931.5,731.6172,941.5,735.6172,937.5,731.6172" style="stroke:#181818;stroke-width:1.0;"/><text fill="#000000" font-family="sans-serif" font-size="13" font-weight="bold" lengthAdjust="spacing" textLength="17" x="937.5" y="713.5513">13</text><text fill="#000000" font-family="sans-serif" font-size="13" lengthAdjust="spacing" textLength="132" x="958.5" y="713.5513">Check latest XML file</text><path d="M409,746.6172 L487,746.6172 L487,753.75 L477,763.75 L409,763.75 L409,746.6172 " fill="#EEEEEE" style="stroke:#000000;stroke-width:1.5;"/><rect fill="none" height="161.7969" style="stroke:#000000;stroke-width:1.5;" width="686.5" x="409" y="746.6172"/><text fill="#000000" font-family="sans-serif" font-size="13" font-weight="bold" lengthAdjust="spacing" textLength="33" x="424" y="759.6841">loop</text><text fill="#000000" font-family="sans-serif" font-size="11" font-weight="bold" lengthAdjust="spacing" textLength="192" x="502" y="758.8276">["Up to latest available file"]</text><polygon fill="#181818" points="463,780.8828,453,784.8828,463,788.8828,459,784.8828" style="stroke:#181818;stroke-width:1.0;"/><line style="stroke:#181818;stroke-width:1.0;stroke-dasharray:2.0,2.0;" x1="457" x2="929.5" y1="784.8828" y2="784.8828"/><text fill="#000000" font-family="sans-serif" font-size="13" font-weight="bold" lengthAdjust="spacing" textLength="18" x="757.5" y="779.8169">14</text><text fill="#000000" font-family="sans-serif" font-size="13" lengthAdjust="spacing" textLength="144" x="779.5" y="779.8169">Request new XML files</text><polygon fill="#181818" points="918.5,810.0156,928.5,814.0156,918.5,818.0156,922.5,814.0156" style="stroke:#181818;stroke-width:1.0;"/><line style="stroke:#181818;stroke-width:1.0;stroke-dasharray:2.0,2.0;" x1="452" x2="924.5" y1="814.0156" y2="814.0156"/><text fill="#000000" font-family="sans-serif" font-size="13" font-weight="bold" lengthAdjust="spacing" textLength="18" x="459" y="808.9497">15</text><text fill="#000000" font-family="sans-serif" font-size="13" lengthAdjust="spacing" textLength="155" x="481" y="808.9497">Download new XML files</text><line style="stroke:#181818;stroke-width:1.0;stroke-dasharray:2.0,2.0;" x1="930.5" x2="972.5" y1="843.1484" y2="843.1484"/><line style="stroke:#181818;stroke-width:1.0;stroke-dasharray:2.0,2.0;" x1="972.5" x2="972.5" y1="843.1484" y2="856.1484"/><line style="stroke:#181818;stroke-width:1.0;stroke-dasharray:2.0,2.0;" x1="931.5" x2="972.5" y1="856.1484" y2="856.1484"/><polygon fill="#181818" points="941.5,852.1484,931.5,856.1484,941.5,860.1484,937.5,856.1484" style="stroke:#181818;stroke-width:1.0;"/><text fill="#000000" font-family="sans-serif" font-size="13" font-weight="bold" lengthAdjust="spacing" textLength="18" x="937.5" y="838.0825">16</text><text fill="#000000" font-family="sans-serif" font-size="13" lengthAdjust="spacing" textLength="124" x="959.5" y="838.0825">Parse each XML file</text><polygon fill="#181818" points="738.5,896.4141,728.5,900.4141,738.5,904.4141,734.5,900.4141" style="stroke:#181818;stroke-width:1.0;"/><line style="stroke:#181818;stroke-width:1.0;stroke-dasharray:2.0,2.0;" x1="732.5" x2="929.5" y1="900.4141" y2="900.4141"/><text fill="#000000" font-family="sans-serif" font-size="13" font-weight="bold" lengthAdjust="spacing" textLength="18" x="744.5" y="887.7817">17</text><text fill="#000000" font-family="sans-serif" font-size="13" lengthAdjust="spacing" textLength="134" x="766.5" y="880.2153">Save all order details</text><text fill="#000000" font-family="sans-serif" font-size="13" lengthAdjust="spacing" textLength="157" x="766.5" y="895.3481">while ignoring duplicates</text><polygon fill="#181818" points="715.5,932.5469,725.5,936.5469,715.5,940.5469,719.5,936.5469" style="stroke:#181818;stroke-width:1.0;"/><line style="stroke:#181818;stroke-width:1.0;stroke-dasharray:2.0,2.0;" x1="567.5" x2="721.5" y1="936.5469" y2="936.5469"/><text fill="#000000" font-family="sans-serif" font-size="13" font-weight="bold" lengthAdjust="spacing" textLength="18" x="574.5" y="931.481">18</text><text fill="#000000" font-family="sans-serif" font-size="13" lengthAdjust="spacing" textLength="114" x="596.5" y="931.481">Query order by ID</text><path d="M566,951.5469 L632,951.5469 L632,958.6797 L622,968.6797 L566,968.6797 L566,951.5469 " fill="#EEEEEE" style="stroke:#000000;stroke-width:1.5;"/><rect fill="none" height="154.7969" style="stroke:#000000;stroke-width:1.5;" width="907" x="566" y="951.5469"/><text fill="#000000" font-family="sans-serif" font-size="13" font-weight="bold" lengthAdjust="spacing" textLength="21" x="581" y="964.6138">alt</text><text fill="#000000" font-family="sans-serif" font-size="11" font-weight="bold" lengthAdjust="spacing" textLength="184" x="647" y="963.7573">["Order found in database"]</text><polygon fill="#181818" points="918.5,985.8125,928.5,989.8125,918.5,993.8125,922.5,989.8125" style="stroke:#181818;stroke-width:1.0;"/><line style="stroke:#181818;stroke-width:1.0;stroke-dasharray:2.0,2.0;" x1="727.5" x2="924.5" y1="989.8125" y2="989.8125"/><text fill="#000000" font-family="sans-serif" font-size="13" font-weight="bold" lengthAdjust="spacing" textLength="18" x="734.5" y="984.7466">19</text><text fill="#000000" font-family="sans-serif" font-size="13" lengthAdjust="spacing" textLength="77" x="756.5" y="984.7466">Order found</text><polygon fill="#181818" points="1365.5,1030.0781,1375.5,1034.0781,1365.5,1038.0781,1369.5,1034.0781" style="stroke:#181818;stroke-width:1.0;"/><line style="stroke:#181818;stroke-width:1.0;stroke-dasharray:2.0,2.0;" x1="930.5" x2="1371.5" y1="1034.0781" y2="1034.0781"/><text fill="#000000" font-family="sans-serif" font-size="13" font-weight="bold" lengthAdjust="spacing" textLength="19" x="937.5" y="1021.4458">20</text><text fill="#000000" font-family="sans-serif" font-size="13" lengthAdjust="spacing" textLength="138" x="960.5" y="1013.8794">Call ERP API to create</text><text fill="#000000" font-family="sans-serif" font-size="13" lengthAdjust="spacing" textLength="200" x="960.5" y="1029.0122">an order and pass order details</text><polygon fill="#181818" points="941.5,1059.2109,931.5,1063.2109,941.5,1067.2109,937.5,1063.2109" style="stroke:#181818;stroke-width:1.0;"/><line style="stroke:#181818;stroke-width:1.0;stroke-dasharray:2.0,2.0;" x1="935.5" x2="1376.5" y1="1063.2109" y2="1063.2109"/><text fill="#000000" font-family="sans-serif" font-size="13" font-weight="bold" lengthAdjust="spacing" textLength="18" x="1233.5" y="1058.145">21</text><text fill="#000000" font-family="sans-serif" font-size="13" lengthAdjust="spacing" textLength="115" x="1255.5" y="1058.145">Success response</text><polygon fill="#181818" points="738.5,1091.3438,728.5,1095.3438,738.5,1099.3438,734.5,1095.3438" style="stroke:#181818;stroke-width:1.0;"/><line style="stroke:#181818;stroke-width:1.0;stroke-dasharray:2.0,2.0;" x1="732.5" x2="929.5" y1="1095.3438" y2="1095.3438"/><text fill="#000000" font-family="sans-serif" font-size="13" font-weight="bold" lengthAdjust="spacing" textLength="18" x="855.5" y="1090.2778">22</text><text fill="#000000" font-family="sans-serif" font-size="13" lengthAdjust="spacing" textLength="46" x="877.5" y="1090.2778">Update</text><path d="M576,1076.2109 L576,1101.2109 L722,1101.2109 L722,1086.2109 L712,1076.2109 L576,1076.2109 " fill="#FEFFDD" style="stroke:#181818;stroke-width:0.5;"/><path d="M712,1076.2109 L712,1086.2109 L722,1086.2109 L712,1076.2109 " fill="#FEFFDD" style="stroke:#181818;stroke-width:0.5;"/><text fill="#000000" font-family="sans-serif" font-size="13" font-weight="bold" lengthAdjust="spacing" textLength="50" x="582" y="1093.2778">status</text><text fill="#000000" font-family="sans-serif" font-size="13" lengthAdjust="spacing" textLength="10" x="636" y="1093.2778">=</text><text fill="#000000" font-family="sans-serif" font-size="13" font-weight="bold" lengthAdjust="spacing" textLength="57" x="650" y="1093.2778">fulfilled</text><path d="M885,1120.3438 L951,1120.3438 L951,1127.4766 L941,1137.4766 L885,1137.4766 L885,1120.3438 " fill="#EEEEEE" style="stroke:#000000;stroke-width:1.5;"/><rect fill="none" height="67.3984" style="stroke:#000000;stroke-width:1.5;" width="520.5" x="885" y="1120.3438"/><text fill="#000000" font-family="sans-serif" font-size="13" font-weight="bold" lengthAdjust="spacing" textLength="21" x="900" y="1133.4106">alt</text><text fill="#000000" font-family="sans-serif" font-size="11" font-weight="bold" lengthAdjust="spacing" textLength="151" x="966" y="1132.5542">["Failed to find order"]</text><polygon fill="#181818" points="1190.5,1165.1758,1200.5,1169.1758,1190.5,1173.1758,1194.5,1169.1758" style="stroke:#181818;stroke-width:1.0;"/><line style="stroke:#181818;stroke-width:1.0;stroke-dasharray:2.0,2.0;" x1="930.5" x2="1196.5" y1="1169.1758" y2="1169.1758"/><text fill="#000000" font-family="sans-serif" font-size="13" font-weight="bold" lengthAdjust="spacing" textLength="17" x="937.5" y="1164.1099">23</text><text fill="#000000" font-family="sans-serif" font-size="13" lengthAdjust="spacing" textLength="227" x="958.5" y="1164.1099">Add another job with given order ID</text><path d="M1207,1142.4766 L1207,1182.4766 L1390,1182.4766 L1390,1152.4766 L1380,1142.4766 L1207,1142.4766 " fill="#FEFFDD" style="stroke:#181818;stroke-width:0.5;"/><path d="M1380,1142.4766 L1380,1152.4766 L1390,1152.4766 L1380,1142.4766 " fill="#FEFFDD" style="stroke:#181818;stroke-width:0.5;"/><text fill="#000000" font-family="sans-serif" font-size="13" lengthAdjust="spacing" textLength="143" x="1213" y="1159.5435">This will add the job at</text><text fill="#000000" font-family="sans-serif" font-size="13" lengthAdjust="spacing" textLength="162" x="1213" y="1174.6763">the bottom of the queue.</text><!--SRC=[jLLDJzj04BtdLupIIsi9LFKOKIGAhKJLg410z93BsXx7ssnstVqWvD_txTeOvwDmg3WWijwPD_DcvisAu8qEgvpjQEIMKZV2YXND-4zWNV2KdHCBFbDoeQcIrlc1qHVpU2NAKke5VVeu6ed26qldmNcpOal2KT7z7eroyqYtPaDtMZwmTJmY0eQNXMo4zZJEiXbRt6JPE3fwitcoRB_JoGc-XUxRSM5MfwSZrYK1k4MVVRkzUWNLLRxfuQBzBiPukg7MO4plGBdskGglvRhQz9XdLvU0t3F_QKjStufSSUTZufUfALd1wq9uaGl7XrplZLtsaTRf08_l9jzB_OPBwPxINbXclO_s9IWrlUxGSXo0THquy2xQrvlNQidskPGjlwdGc9GLQpz4MrWJckUXIAQ0VfeCEZewFT3j2Tqv_6k2BMfKnf6Wnfeo51w- - -OHf6_3XEuvfzgO9MdZPIKBuQNHPAeU3o2zUVGTj6D2C_4G3U3BP6Cn9vHbpWiVN9RHPnmQiCFGu_I-v4e4vJ_CDToY418KNLvG8JIv629Mgq6oqlcegBcM6fUHrBfcopYbrf5b1B7UpRL0yTOItScP6baikIJKCDyGvgl5j7CT6d1A7hZp1kv7q6ByzITsz1WK1hI65TfbVwZyir0Ka7vC2d5SNn355UfnMoDVPzG3IFYQoSiLc-19EXT0q4dmJ1Thphj6a39w0MZDN88YqYmChAmcwHsh2eHzZGsJAejxEBUbBDaBgIZMn8LyXH2ncV2FC_fY8p7PTjEXe7YN5x0M2gFSpcjb0Z1H_hBJtnZt_omQy0PkoN8hyhCU9dGkq3kab_eLcLeMdcDVksmYcKOujqNH9T1dd9te1pho4lcx1hHQenSckGggmg1ncMKmvKGibUWR4k8qJR4bBVHuFsJQ8HCwm-09-ctojeiB39FkbT01nxzk6wILWy_9Ey9qYms3XJGNwUrmff0WK7PtiEwCjkpFQowMf63eFFsQ_a2sAY8hOneQtoLXTBVY0PJY2ausBPS1vE1jc42Gq11yDAzxrBOz0xEjH2xCMYiZoWCkX_A-4X0RiIZgOTPRjdixYU9KRGtCNAzhU1BUPcFZyYb3e-AwIv5JmTzS7psbNNKCgBoDDlh81vNnhqhkwg9TQFylYq6yeIWG0ql-1MbiopCjrhJwqox74eoUmhSBCJSUZsPyoEAfN_ETklu2]--></g></svg>